<?xml version="1.0" encoding="UTF-8"?>
<svg width="256px" height="256px" viewBox="0 0 256 256" version="1.1" xmlns="http://www.w3.org/2000/svg" xmlns:xlink="http://www.w3.org/1999/xlink">
    <!-- Generator: Sketch 53.1 (72631) - https://sketchapp.com -->
    <title>Group 2</title>
    <desc>Created with Sketch.</desc>
    <g id="Page-1" stroke="none" stroke-width="1" fill="none" fill-rule="evenodd">
        <g id="Group-2">
            <rect id="Rectangle" fill="#FFFFFF" x="0" y="0" width="256" height="256"></rect>
            <g id="iconfinder_tag_1954202" transform="translate(58.000000, 66.000000)" stroke="#000000" stroke-linecap="round" stroke-linejoin="round" stroke-width="2">
                <g id="Group" transform="translate(0.000000, 42.000000)">
                    <path d="M82.2233333,79.6056 L127.14,79.6056 C134.13,79.6056 139.8,74.02632 139.8,67.14816 L139.8,14.19912 C139.8,7.32096 134.13,1.74168 127.14,1.74168 L34.8633333,1.74168 C27.8733333,1.74168 0.31,34.9648 0.31,40.66872 C0.31,46.37592 27.8766667,79.60232 34.8633333,79.60232 L65.2766667,79.60232" id="Path"></path>
                    <ellipse id="Oval" cx="31.1733333" cy="40.672" rx="7.91333333" ry="7.78672"></ellipse>
                </g>
                <g id="Group">
                    <path d="M125.408585,18.9343846 L121.670244,8.68715385 C119.288585,2.16438462 112.060683,-1.19623077 105.522732,1.17538462 L19.2357073,32.4926154 C12.7010732,34.8675385 -1.58556098,75.7043077 0.384780488,81.1123846" id="Path"></path>
                    <path d="M134.56039,44.0066923 L129.780488,30.9115385" id="Path"></path>
                </g>
            </g>
        </g>
    </g>
</svg>